<?xml version="1.0" encoding="UTF-8"?>
<svg version="1.1" xmlns="http://www.w3.org/2000/svg" width="40" height="40">
<path d="M0 0 C1.11181641 -0.02900391 2.22363281 -0.05800781 3.36914062 -0.08789062 C10.06878346 -0.13945685 15.28648125 0.29753672 20.8125 4.3125 C22.65234375 6.12890625 22.65234375 6.12890625 23.75 7.875 C24.13027344 8.45378906 24.51054687 9.03257813 24.90234375 9.62890625 C27.9914192 15.34303294 27.94909436 23.39604234 26.1640625 29.546875 C23.36940923 34.94509414 18.45989373 38.43003542 12.8125 40.3125 C8.75485433 40.5988059 4.69161041 40.59024265 0.625 40.625 C-0.48681641 40.65400391 -1.59863281 40.68300781 -2.74414062 40.71289062 C-10.16757199 40.77002775 -16.19760276 40.12783138 -21.73876953 34.82910156 C-26.70998266 29.16622616 -26.53548566 24.00815758 -26.4609375 16.76953125 C-26.03405347 11.37249748 -24.65109948 8.44575318 -20.46875 4.82421875 C-13.88057308 -0.13087194 -8.03413443 0.06866782 0 0 Z " fill="#46484A" transform="translate(110.1875,85.6875)"/>
<path d="M0 0 C5.04491138 4.41318526 7.05264828 7.49120744 7.875 14.1875 C8.34064062 21.42433133 6.44997258 25.98360747 2.0625 31.75 C-3.76087396 37.00523992 -8.6958954 37.21546098 -16.34375 37.16015625 C-23.05325379 36.39439766 -27.01523856 33.1375438 -31.1484375 28.00390625 C-34.51076719 21.88857736 -34.04682587 14.11383818 -32.34765625 7.4296875 C-29.90284569 2.40486949 -24.79349448 -0.80971947 -19.9375 -3.25 C-12.59465286 -5.20962954 -6.14409676 -4.61057832 0 0 Z " fill="#585B5D" transform="translate(179.9375,88.25)"/>
<path d="M0 0 C5.36076359 2.23987337 9.73227968 5.53079218 12 11 C14.65018438 18.15549783 13.88454418 24.01636673 11 31 C8.02033472 35.81330546 4.36085201 38.39683381 -1 40 C-7.57396326 40.97115366 -13.29056499 40.99019267 -19.0625 37.4375 C-23.83077426 33.74536837 -26.0966531 29.7100407 -28 24 C-28.4932475 16.60128753 -27.06779301 11.90608747 -22.6875 5.75 C-16.22502099 -0.86276922 -8.80788345 -1.22167511 0 0 Z " fill="#575A5D" transform="translate(59,86)"/>
<path d="M0 0 C4.68818295 2.88265133 8.79243194 6.42112926 10.23828125 11.890625 C11.16044096 19.32997114 11.39694791 26.15916952 6.73828125 32.33984375 C1.82750517 37.41687007 -3.00653467 39.05974903 -9.88671875 39.328125 C-16.71238987 39.27485889 -20.83354734 37.57398444 -25.76171875 32.890625 C-30.40485605 27.61374473 -31.1175515 22.77005822 -30.76171875 15.890625 C-29.25823429 9.75139679 -26.45489147 4.86007226 -21.38671875 1.015625 C-14.98130478 -2.66000507 -6.78135779 -2.7240532 0 0 Z " fill="#3A3C3D" transform="translate(91.76171875,44.109375)"/>
<path d="M0 0 C4.48253343 3.34165875 7.14138244 6.40244372 9.25390625 11.6484375 C10.00542082 17.54545725 10.46858918 24.27627781 7.69140625 29.7109375 C4.16200666 33.96431649 0.51632036 36.89429946 -4.74609375 38.6484375 C-11.44936496 39.20348543 -16.87737716 39.05229312 -22.74609375 35.6484375 C-28.6420618 30.42246582 -31.48307018 26.65954699 -31.99609375 18.8359375 C-31.90045217 12.40404126 -29.10991484 7.26895395 -24.74609375 2.6484375 C-17.85634957 -2.17438343 -7.71258857 -3.79595397 0 0 Z " fill="#262728" transform="translate(121.74609375,1.3515625)"/>
<path d="M0 0 C4.54091173 2.8474364 7.99319809 5.94746 10.3046875 10.859375 C11.67539157 16.84661039 12.18822979 23.39313397 9.1796875 28.9296875 C5.79729589 33.9113621 2.19294322 37.28392197 -3.6953125 38.859375 C-10.13206195 39.69216199 -16.26013554 39.6422994 -21.94140625 36.23828125 C-26.186364 32.9009314 -29.07986512 29.42677382 -30.35546875 24.10546875 C-31.18533962 17.09449073 -30.03258641 12.0571694 -26.6953125 5.859375 C-26.0353125 5.859375 -25.3753125 5.859375 -24.6953125 5.859375 C-24.3653125 4.869375 -24.0353125 3.879375 -23.6953125 2.859375 C-16.61835348 -1.9039628 -8.06453173 -3.41281633 0 0 Z " fill="#393B3D" transform="translate(148.6953125,43.140625)"/>
<path d="M0 0 C5.307144 5.63474548 6.31511352 10.8928118 6.21484375 18.46875 C5.78906515 23.48519606 3.88999811 26.91222453 0.75 30.75 C-4.68929799 35.20033472 -9.67995423 36.5257755 -16.57421875 36.28515625 C-22.89098421 35.54260572 -26.94111559 32.73536515 -31 28 C-35.25805819 22.10264095 -34.71107215 16.00567677 -34 9 C-32.57037052 4.00480652 -29.19163373 0.76830132 -24.921875 -1.99609375 C-16.50369866 -6.39339318 -7.74955369 -5.42631222 0 0 Z " fill="#75797D" transform="translate(209,131)"/>
<path d="M0 0 C4.22362459 3.89953458 5.7880325 7.34171912 6.23828125 12.98828125 C6.39328419 19.9307813 6.45029854 24.52270949 2 30 C-3.83981236 35.17588937 -8.75475815 36.3169407 -16.46875 36.21484375 C-21.51119315 35.78685861 -24.93377353 33.89659953 -28.75 30.6875 C-33.40289211 25.12987886 -34.5080402 20.82557084 -34.28515625 13.68359375 C-33.60968415 7.32675355 -30.92740166 3.1252665 -26 -1 C-16.98786819 -6.14978961 -8.66107041 -5.86657974 0 0 Z " fill="#75797D" transform="translate(34,131)"/>
</svg>
