<?xml version="1.0" encoding="UTF-8"?>
<svg xmlns="http://www.w3.org/2000/svg" xmlns:xlink="http://www.w3.org/1999/xlink" width="120px" height="21px" viewBox="0 0 117 21" version="1.1">
<g id="surface1">
<path style=" stroke:none;fill-rule:nonzero;fill:rgb(11.372549%,11.764706%,12.156863%);fill-opacity:1;" d="M 38.835938 7.605469 C 38.984375 7.605469 39.128906 7.605469 39.277344 7.601562 C 39.753906 7.601562 40.234375 7.601562 40.710938 7.605469 C 41.042969 7.605469 41.375 7.601562 41.710938 7.601562 C 42.40625 7.601562 43.105469 7.601562 43.800781 7.605469 C 44.605469 7.609375 45.410156 7.605469 46.214844 7.605469 C 46.90625 7.601562 47.601562 7.601562 48.292969 7.601562 C 48.707031 7.605469 49.117188 7.605469 49.53125 7.601562 C 49.992188 7.601562 50.453125 7.601562 50.914062 7.605469 C 51.046875 7.605469 51.183594 7.605469 51.324219 7.601562 C 52.242188 7.613281 52.832031 7.746094 53.496094 8.425781 C 53.582031 8.550781 53.582031 8.550781 53.671875 8.675781 C 53.761719 8.800781 53.761719 8.800781 53.855469 8.929688 C 54.171875 9.472656 54.1875 10.070312 54.125 10.6875 C 53.871094 11.464844 53.492188 12.097656 52.789062 12.53125 C 52.316406 12.722656 51.914062 12.753906 51.410156 12.75 C 51.316406 12.75 51.222656 12.753906 51.128906 12.753906 C 50.820312 12.757812 50.511719 12.757812 50.203125 12.757812 C 49.988281 12.757812 49.773438 12.757812 49.558594 12.761719 C 48.992188 12.765625 48.425781 12.769531 47.863281 12.769531 C 46.957031 12.773438 46.054688 12.777344 45.148438 12.785156 C 44.835938 12.789062 44.519531 12.789062 44.207031 12.789062 C 44.011719 12.789062 43.816406 12.789062 43.621094 12.792969 C 43.492188 12.792969 43.492188 12.792969 43.359375 12.792969 C 42.691406 12.796875 41.972656 12.867188 41.390625 13.21875 C 40.980469 13.90625 40.964844 14.730469 40.964844 15.511719 C 40.964844 15.707031 40.960938 15.90625 40.957031 16.101562 C 40.957031 16.410156 40.953125 16.71875 40.953125 17.023438 C 40.941406 19.503906 40.941406 19.503906 40.125 20.390625 C 40.042969 20.445312 39.960938 20.503906 39.875 20.558594 C 39.75 20.648438 39.75 20.648438 39.625 20.738281 C 38.914062 21.128906 37.988281 21.125 37.214844 20.925781 C 36.488281 20.617188 36.050781 20.089844 35.75 19.367188 C 35.640625 18.609375 35.644531 17.859375 35.648438 17.09375 C 35.648438 16.871094 35.648438 16.652344 35.648438 16.429688 C 35.648438 15.96875 35.648438 15.507812 35.652344 15.042969 C 35.65625 14.453125 35.652344 13.863281 35.648438 13.273438 C 35.648438 12.816406 35.648438 12.363281 35.648438 11.90625 C 35.648438 11.6875 35.648438 11.472656 35.648438 11.253906 C 35.636719 9.222656 35.636719 9.222656 36.253906 8.390625 C 37.089844 7.652344 37.753906 7.597656 38.835938 7.605469 Z M 38.835938 7.605469 "/>
<path style=" stroke:none;fill-rule:nonzero;fill:rgb(11.372549%,11.764706%,12.156863%);fill-opacity:1;" d="M 38.230469 -0.0195312 C 38.417969 -0.0234375 38.417969 -0.0234375 38.609375 -0.0273438 C 38.75 -0.0273438 38.886719 -0.0273438 39.027344 -0.0273438 C 39.242188 -0.03125 39.242188 -0.03125 39.464844 -0.03125 C 40.796875 -0.0429688 42.132812 -0.0507812 43.464844 -0.0546875 C 44.449219 -0.0585938 45.433594 -0.0664062 46.417969 -0.0742188 C 47.113281 -0.0820312 47.804688 -0.0859375 48.5 -0.0898438 C 48.914062 -0.0898438 49.324219 -0.0898438 49.738281 -0.0976562 C 50.203125 -0.101562 50.664062 -0.101562 51.125 -0.101562 C 51.261719 -0.105469 51.398438 -0.109375 51.539062 -0.109375 C 52.511719 -0.101562 53.066406 0.183594 53.75 0.878906 C 54.238281 1.539062 54.335938 2.203125 54.25 3.019531 C 53.992188 3.785156 53.664062 4.390625 52.949219 4.792969 C 52.285156 5.113281 51.648438 5.101562 50.921875 5.09375 C 50.78125 5.097656 50.636719 5.097656 50.492188 5.097656 C 50.023438 5.101562 49.554688 5.097656 49.085938 5.097656 C 48.757812 5.097656 48.433594 5.097656 48.105469 5.097656 C 47.421875 5.097656 46.738281 5.097656 46.050781 5.09375 C 45.261719 5.09375 44.476562 5.09375 43.6875 5.097656 C 42.925781 5.097656 42.164062 5.097656 41.402344 5.097656 C 41.078125 5.097656 40.753906 5.097656 40.433594 5.097656 C 39.980469 5.101562 39.527344 5.097656 39.078125 5.09375 C 38.945312 5.097656 38.8125 5.097656 38.675781 5.097656 C 37.792969 5.089844 37.085938 4.953125 36.417969 4.339844 C 36.003906 3.875 35.773438 3.210938 35.726562 2.59375 C 35.785156 1.832031 36.019531 1.082031 36.589844 0.554688 C 37.125 0.15625 37.558594 -0.015625 38.230469 -0.0195312 Z M 38.230469 -0.0195312 "/>
<path style=" stroke:none;fill-rule:nonzero;fill:rgb(3.529412%,3.529412%,3.529412%);fill-opacity:1;" d="M 86.289062 8.40625 C 86.398438 8.40625 86.511719 8.40625 86.628906 8.402344 C 86.753906 8.402344 86.878906 8.402344 87.003906 8.402344 C 87.203125 8.402344 87.203125 8.402344 87.402344 8.398438 C 87.835938 8.398438 88.269531 8.394531 88.703125 8.394531 C 88.847656 8.394531 88.996094 8.394531 89.148438 8.394531 C 89.929688 8.390625 90.714844 8.390625 91.496094 8.386719 C 92.304688 8.386719 93.113281 8.382812 93.921875 8.378906 C 94.542969 8.375 95.164062 8.371094 95.785156 8.371094 C 96.082031 8.371094 96.378906 8.371094 96.679688 8.367188 C 97.09375 8.363281 97.511719 8.363281 97.929688 8.367188 C 98.050781 8.363281 98.175781 8.363281 98.304688 8.359375 C 99.15625 8.367188 99.574219 8.523438 100.203125 9.121094 C 100.707031 9.746094 100.9375 10.230469 100.914062 11.050781 C 100.816406 11.726562 100.496094 12.203125 100.023438 12.675781 C 99.175781 13.261719 98.53125 13.386719 97.523438 13.382812 C 97.34375 13.382812 97.34375 13.382812 97.160156 13.386719 C 96.765625 13.386719 96.371094 13.386719 95.972656 13.386719 C 95.699219 13.390625 95.421875 13.390625 95.144531 13.390625 C 94.566406 13.394531 93.988281 13.394531 93.410156 13.390625 C 92.671875 13.390625 91.933594 13.394531 91.195312 13.402344 C 90.625 13.402344 90.058594 13.402344 89.488281 13.402344 C 89.214844 13.402344 88.941406 13.40625 88.671875 13.40625 C 88.289062 13.410156 87.90625 13.410156 87.527344 13.40625 C 87.414062 13.410156 87.304688 13.410156 87.1875 13.410156 C 86.261719 13.398438 85.433594 13.117188 84.753906 12.464844 C 84.222656 11.855469 84.074219 11.234375 84.125 10.4375 C 84.265625 9.550781 84.800781 9.066406 85.5 8.550781 C 85.792969 8.402344 85.960938 8.410156 86.289062 8.40625 Z M 86.289062 8.40625 "/>
<path style=" stroke:none;fill-rule:nonzero;fill:rgb(1.568628%,1.568628%,1.568628%);fill-opacity:1;" d="M 86.554688 0.21875 C 86.722656 0.214844 86.722656 0.214844 86.890625 0.214844 C 87.011719 0.214844 87.132812 0.214844 87.257812 0.214844 C 87.386719 0.210938 87.511719 0.210938 87.644531 0.210938 C 88.066406 0.207031 88.488281 0.207031 88.914062 0.203125 C 89.207031 0.203125 89.5 0.203125 89.792969 0.203125 C 90.410156 0.199219 91.027344 0.199219 91.644531 0.199219 C 92.433594 0.199219 93.222656 0.191406 94.011719 0.1875 C 94.617188 0.183594 95.226562 0.183594 95.832031 0.183594 C 96.125 0.179688 96.414062 0.179688 96.707031 0.175781 C 97.113281 0.175781 97.519531 0.175781 97.929688 0.175781 C 98.046875 0.175781 98.167969 0.171875 98.289062 0.171875 C 99.097656 0.179688 99.621094 0.363281 100.25 0.878906 C 100.761719 1.421875 100.972656 1.875 101.046875 2.617188 C 101.027344 3.289062 100.777344 3.851562 100.320312 4.34375 C 99.34375 5.210938 98.15625 5.175781 96.925781 5.167969 C 96.808594 5.164062 96.695312 5.164062 96.574219 5.164062 C 96.195312 5.164062 95.816406 5.160156 95.4375 5.15625 C 95.308594 5.15625 95.175781 5.15625 95.042969 5.15625 C 94.355469 5.152344 93.664062 5.144531 92.976562 5.140625 C 92.269531 5.132812 91.558594 5.128906 90.847656 5.128906 C 90.300781 5.125 89.753906 5.121094 89.207031 5.113281 C 88.945312 5.113281 88.683594 5.109375 88.421875 5.109375 C 88.054688 5.109375 87.691406 5.105469 87.324219 5.101562 C 87.21875 5.101562 87.109375 5.101562 87 5.101562 C 86.207031 5.085938 85.527344 4.902344 84.933594 4.347656 C 84.40625 3.75 84.1875 3.207031 84.210938 2.402344 C 84.308594 1.742188 84.625 1.207031 85.125 0.769531 C 85.617188 0.417969 85.949219 0.222656 86.554688 0.21875 Z M 86.554688 0.21875 "/>
<path style=" stroke:none;fill-rule:nonzero;fill:rgb(1.568628%,1.568628%,1.568628%);fill-opacity:1;" d="M 86.292969 16.203125 C 86.402344 16.203125 86.515625 16.203125 86.628906 16.199219 C 86.808594 16.199219 86.808594 16.199219 86.996094 16.199219 C 87.1875 16.199219 87.1875 16.199219 87.382812 16.195312 C 87.804688 16.195312 88.230469 16.191406 88.652344 16.191406 C 88.871094 16.191406 88.871094 16.191406 89.09375 16.191406 C 89.859375 16.1875 90.625 16.1875 91.390625 16.183594 C 92.183594 16.183594 92.972656 16.179688 93.765625 16.171875 C 94.375 16.171875 94.980469 16.167969 95.589844 16.167969 C 95.882812 16.167969 96.171875 16.167969 96.464844 16.164062 C 96.875 16.160156 97.28125 16.160156 97.691406 16.164062 C 97.871094 16.160156 97.871094 16.160156 98.054688 16.15625 C 98.90625 16.164062 99.441406 16.332031 100.089844 16.917969 C 100.578125 17.546875 100.8125 18.03125 100.789062 18.847656 C 100.691406 19.507812 100.375 20.042969 99.882812 20.480469 C 99.125 21.007812 98.523438 21.039062 97.625 21.035156 C 97.5 21.039062 97.375 21.039062 97.246094 21.039062 C 96.832031 21.042969 96.417969 21.042969 96.003906 21.042969 C 95.71875 21.042969 95.429688 21.042969 95.140625 21.042969 C 94.535156 21.046875 93.933594 21.046875 93.328125 21.046875 C 92.554688 21.046875 91.78125 21.050781 91.007812 21.054688 C 90.414062 21.058594 89.820312 21.058594 89.222656 21.058594 C 88.9375 21.058594 88.652344 21.058594 88.371094 21.0625 C 87.96875 21.0625 87.570312 21.0625 87.171875 21.0625 C 86.996094 21.0625 86.996094 21.0625 86.816406 21.066406 C 85.992188 21.058594 85.304688 20.898438 84.683594 20.320312 C 84.15625 19.71875 83.9375 19.175781 83.960938 18.375 C 84.082031 17.546875 84.539062 17.003906 85.164062 16.488281 C 85.535156 16.238281 85.859375 16.207031 86.292969 16.203125 Z M 86.292969 16.203125 "/>
<path style=" stroke:none;fill-rule:nonzero;fill:rgb(2.745098%,2.745098%,2.745098%);fill-opacity:1;" d="M 115.640625 12.769531 C 116.210938 13.089844 116.742188 13.5625 116.957031 14.195312 C 117.007812 14.511719 117.027344 14.816406 117.03125 15.136719 C 117.035156 15.253906 117.039062 15.367188 117.039062 15.484375 C 116.949219 16.289062 116.46875 16.808594 115.917969 17.355469 C 115.8125 17.460938 115.8125 17.460938 115.707031 17.566406 C 115.5625 17.714844 115.417969 17.859375 115.269531 18.003906 C 115.050781 18.222656 114.828125 18.445312 114.609375 18.664062 C 112.257812 21.027344 112.257812 21.027344 110.894531 21.035156 C 110.75 21.039062 110.605469 21.039062 110.457031 21.042969 C 110.300781 21.042969 110.144531 21.042969 109.984375 21.042969 C 109.746094 21.042969 109.746094 21.042969 109.5 21.042969 C 109.160156 21.046875 108.820312 21.046875 108.480469 21.046875 C 108.050781 21.046875 107.617188 21.050781 107.183594 21.054688 C 106.769531 21.058594 106.355469 21.058594 105.9375 21.058594 C 105.785156 21.058594 105.628906 21.0625 105.472656 21.0625 C 104.390625 21.058594 103.695312 20.925781 102.890625 20.152344 C 102.449219 19.472656 102.320312 18.914062 102.429688 18.109375 C 102.59375 17.417969 102.957031 16.921875 103.5 16.472656 C 104.113281 16.121094 104.710938 16.230469 105.390625 16.28125 C 108.464844 16.554688 108.464844 16.554688 111.1875 15.402344 C 111.863281 14.773438 112.4375 14.042969 112.960938 13.28125 C 113.664062 12.480469 114.699219 12.351562 115.640625 12.769531 Z M 115.640625 12.769531 "/>
<path style=" stroke:none;fill-rule:nonzero;fill:rgb(2.745098%,2.745098%,2.745098%);fill-opacity:1;" d="M 105.054688 0.230469 C 105.265625 0.226562 105.265625 0.226562 105.476562 0.222656 C 105.628906 0.222656 105.78125 0.222656 105.933594 0.222656 C 106.089844 0.21875 106.246094 0.21875 106.40625 0.21875 C 106.734375 0.214844 107.0625 0.214844 107.390625 0.214844 C 107.730469 0.214844 108.066406 0.210938 108.402344 0.207031 C 108.886719 0.203125 109.371094 0.199219 109.855469 0.199219 C 110.007812 0.195312 110.15625 0.195312 110.308594 0.191406 C 111.621094 0.195312 112.3125 0.511719 113.234375 1.429688 C 113.320312 1.519531 113.40625 1.605469 113.492188 1.695312 C 113.625 1.828125 113.625 1.828125 113.761719 1.96875 C 113.949219 2.15625 114.136719 2.347656 114.324219 2.539062 C 114.609375 2.828125 114.898438 3.121094 115.1875 3.410156 C 115.367188 3.59375 115.550781 3.78125 115.734375 3.964844 C 115.820312 4.050781 115.90625 4.136719 115.992188 4.226562 C 116.074219 4.308594 116.152344 4.390625 116.234375 4.472656 C 116.339844 4.582031 116.339844 4.582031 116.445312 4.691406 C 116.972656 5.320312 116.929688 5.949219 116.914062 6.746094 C 116.84375 7.515625 116.46875 7.863281 115.914062 8.339844 C 115.363281 8.726562 114.917969 8.847656 114.25 8.800781 C 113.402344 8.636719 112.902344 8.246094 112.382812 7.566406 C 111.09375 5.867188 111.09375 5.867188 109.222656 5.003906 C 107.941406 4.855469 106.632812 4.902344 105.351562 5.027344 C 104.621094 5.082031 104.109375 4.949219 103.5 4.527344 C 102.921875 3.988281 102.65625 3.449219 102.578125 2.664062 C 102.601562 1.964844 102.859375 1.410156 103.339844 0.90625 C 103.902344 0.402344 104.296875 0.238281 105.054688 0.230469 Z M 105.054688 0.230469 "/>
<path style=" stroke:none;fill-rule:nonzero;fill:rgb(5.098039%,5.098039%,5.098039%);fill-opacity:1;" d="M 81.179688 0.402344 C 81.886719 0.902344 82.332031 1.402344 82.5 2.261719 C 82.535156 3.195312 82.292969 3.800781 81.683594 4.496094 C 81.453125 4.738281 81.222656 4.976562 80.984375 5.214844 C 80.859375 5.347656 80.859375 5.347656 80.726562 5.480469 C 80.546875 5.664062 80.363281 5.847656 80.183594 6.03125 C 79.90625 6.308594 79.632812 6.589844 79.359375 6.871094 C 79.183594 7.050781 79.007812 7.230469 78.828125 7.410156 C 78.75 7.492188 78.667969 7.578125 78.585938 7.664062 C 77.988281 8.257812 77.425781 8.621094 76.566406 8.707031 C 75.632812 8.59375 74.847656 8.160156 74.25 7.417969 C 73.914062 6.84375 73.902344 6.179688 74 5.53125 C 74.234375 4.996094 74.5625 4.535156 75 4.148438 C 75.082031 4.148438 75.164062 4.148438 75.25 4.148438 C 75.277344 4.082031 75.304688 4.011719 75.335938 3.941406 C 75.550781 3.554688 75.84375 3.261719 76.15625 2.949219 C 76.21875 2.886719 76.285156 2.820312 76.351562 2.753906 C 76.484375 2.613281 76.621094 2.476562 76.757812 2.339844 C 76.96875 2.132812 77.171875 1.921875 77.378906 1.710938 C 77.511719 1.574219 77.644531 1.441406 77.78125 1.308594 C 77.871094 1.214844 77.871094 1.214844 77.964844 1.117188 C 78.886719 0.203125 79.957031 -0.0234375 81.179688 0.402344 Z M 81.179688 0.402344 "/>
<path style=" stroke:none;fill-rule:nonzero;fill:rgb(28.235295%,29.411766%,30.19608%);fill-opacity:1;" d="M 70.265625 12.671875 C 70.453125 12.792969 70.453125 12.792969 70.75 13.078125 C 70.839844 13.148438 70.929688 13.21875 71.023438 13.289062 C 71.460938 13.851562 71.632812 14.460938 71.609375 15.167969 C 71.351562 16.164062 70.957031 16.714844 70.238281 17.425781 C 70.152344 17.511719 70.066406 17.601562 69.976562 17.691406 C 69.796875 17.875 69.613281 18.054688 69.429688 18.238281 C 69.148438 18.515625 68.871094 18.796875 68.59375 19.078125 C 68.417969 19.253906 68.238281 19.433594 68.058594 19.609375 C 67.976562 19.695312 67.894531 19.777344 67.808594 19.863281 C 67.183594 20.480469 66.613281 20.929688 65.703125 20.929688 C 64.875 20.902344 64.296875 20.671875 63.710938 20.082031 C 63.316406 19.445312 63.007812 18.863281 63.125 18.109375 C 63.484375 17.199219 63.976562 16.53125 64.667969 15.855469 C 64.753906 15.769531 64.84375 15.683594 64.929688 15.59375 C 65.113281 15.410156 65.296875 15.230469 65.480469 15.050781 C 65.757812 14.773438 66.035156 14.496094 66.316406 14.21875 C 66.492188 14.039062 66.671875 13.863281 66.847656 13.6875 C 66.929688 13.605469 67.015625 13.519531 67.097656 13.4375 C 67.175781 13.359375 67.253906 13.28125 67.335938 13.203125 C 67.402344 13.136719 67.472656 13.070312 67.542969 13 C 68.257812 12.398438 69.402344 12.359375 70.265625 12.671875 Z M 70.265625 12.671875 "/>
<path style=" stroke:none;fill-rule:nonzero;fill:rgb(28.235295%,29.411766%,30.19608%);fill-opacity:1;" d="M 78 13.078125 C 78.324219 13.339844 78.609375 13.628906 78.898438 13.925781 C 78.980469 14.007812 79.0625 14.089844 79.144531 14.171875 C 79.3125 14.34375 79.480469 14.515625 79.648438 14.6875 C 79.90625 14.949219 80.164062 15.207031 80.421875 15.46875 C 80.585938 15.632812 80.75 15.800781 80.914062 15.96875 C 81.03125 16.085938 81.03125 16.085938 81.148438 16.203125 C 81.816406 16.890625 82.417969 17.601562 82.546875 18.585938 C 82.457031 19.355469 82.042969 20.078125 81.5 20.621094 C 80.8125 21.023438 80.164062 21.113281 79.375 21 C 78.832031 20.8125 78.375 20.5625 78 20.121094 C 78 20.035156 78 19.953125 78 19.867188 C 77.917969 19.867188 77.835938 19.867188 77.75 19.867188 C 77.75 19.785156 77.75 19.703125 77.75 19.617188 C 77.679688 19.589844 77.609375 19.558594 77.539062 19.53125 C 77.167969 19.316406 76.910156 19.054688 76.625 18.738281 C 76.625 18.652344 76.625 18.570312 76.625 18.484375 C 76.542969 18.484375 76.460938 18.484375 76.375 18.484375 C 76.035156 18.171875 75.738281 17.839844 75.445312 17.480469 C 75.136719 17.089844 75.136719 17.089844 74.734375 16.796875 C 74.265625 16.375 74.054688 15.976562 73.964844 15.34375 C 73.929688 14.617188 74.097656 14.019531 74.59375 13.464844 C 75.664062 12.453125 76.761719 12.316406 78 13.078125 Z M 78 13.078125 "/>
<path style=" stroke:none;fill-rule:nonzero;fill:rgb(3.921569%,3.921569%,3.921569%);fill-opacity:1;" d="M 67.195312 0.636719 C 67.375 0.878906 67.375 0.878906 67.375 1.132812 C 67.441406 1.160156 67.507812 1.183594 67.578125 1.214844 C 67.984375 1.445312 68.296875 1.765625 68.625 2.097656 C 68.695312 2.167969 68.769531 2.238281 68.839844 2.308594 C 68.988281 2.457031 69.140625 2.609375 69.289062 2.757812 C 69.515625 2.984375 69.742188 3.210938 69.972656 3.4375 C 70.117188 3.582031 70.261719 3.726562 70.40625 3.871094 C 70.476562 3.941406 70.542969 4.007812 70.613281 4.074219 C 71.1875 4.660156 71.410156 5.210938 71.414062 6.027344 C 71.394531 6.808594 71.214844 7.332031 70.65625 7.890625 C 69.957031 8.378906 69.398438 8.652344 68.546875 8.503906 C 67.503906 8.230469 66.761719 7.351562 66.039062 6.601562 C 65.882812 6.441406 65.882812 6.441406 65.726562 6.28125 C 65.527344 6.078125 65.328125 5.875 65.132812 5.671875 C 64.929688 5.460938 64.722656 5.253906 64.519531 5.050781 C 64.265625 4.796875 64.027344 4.535156 63.789062 4.269531 C 63.679688 4.144531 63.679688 4.144531 63.570312 4.019531 C 63.09375 3.414062 63.0625 2.902344 63.078125 2.144531 C 63.164062 1.445312 63.453125 1.007812 63.980469 0.558594 C 65.023438 -0.171875 66.1875 -0.179688 67.195312 0.636719 Z M 67.195312 0.636719 "/>
<path style=" stroke:none;fill-rule:nonzero;fill:rgb(6.27451%,6.27451%,6.27451%);fill-opacity:1;" d="M 106.832031 7.058594 C 107.457031 7.550781 107.753906 8.027344 107.875 8.800781 C 107.90625 9.40625 107.902344 10.007812 107.90625 10.609375 C 107.910156 10.773438 107.910156 10.9375 107.914062 11.105469 C 107.917969 12.28125 107.828125 13.074219 107 13.957031 C 106.363281 14.484375 105.777344 14.628906 104.972656 14.5625 C 104.242188 14.441406 103.613281 14.148438 103.125 13.582031 C 102.515625 12.640625 102.550781 11.652344 102.5625 10.5625 C 102.5625 10.398438 102.558594 10.230469 102.554688 10.0625 C 102.5625 9.023438 102.621094 8.109375 103.335938 7.308594 C 104.335938 6.34375 105.695312 6.277344 106.832031 7.058594 Z M 106.832031 7.058594 "/>
<path style=" stroke:none;fill-rule:nonzero;fill:rgb(14.901961%,14.901961%,15.294118%);fill-opacity:1;" d="M 60.402344 7.160156 C 61.164062 8.042969 61.214844 8.914062 61.238281 10.050781 C 61.242188 10.304688 61.253906 10.554688 61.261719 10.804688 C 61.292969 11.886719 61.238281 12.761719 60.648438 13.683594 C 60.046875 14.289062 59.542969 14.546875 58.699219 14.597656 C 57.8125 14.566406 57.113281 14.226562 56.5 13.582031 C 55.933594 12.722656 55.921875 11.898438 55.933594 10.894531 C 55.9375 10.632812 55.933594 10.375 55.929688 10.113281 C 55.929688 9.0625 55.988281 8.125 56.707031 7.308594 C 57.75 6.28125 59.265625 6.300781 60.402344 7.160156 Z M 60.402344 7.160156 "/>
<path style=" stroke:none;fill-rule:nonzero;fill:rgb(12.941177%,13.333334%,13.725491%);fill-opacity:1;" d="M 33.015625 7.136719 C 33.5 7.59375 33.730469 8.125 33.800781 8.785156 C 33.804688 8.964844 33.808594 9.148438 33.808594 9.328125 C 33.808594 9.472656 33.808594 9.472656 33.8125 9.621094 C 33.8125 9.828125 33.8125 10.03125 33.8125 10.234375 C 33.8125 10.546875 33.816406 10.855469 33.824219 11.164062 C 33.835938 12.957031 33.835938 12.957031 33.304688 13.65625 C 32.683594 14.265625 32.058594 14.5625 31.191406 14.613281 C 30.402344 14.546875 29.6875 14.128906 29.125 13.582031 C 28.71875 13.046875 28.691406 12.558594 28.691406 11.910156 C 28.691406 11.808594 28.691406 11.707031 28.6875 11.605469 C 28.6875 11.394531 28.6875 11.183594 28.6875 10.972656 C 28.6875 10.652344 28.683594 10.332031 28.675781 10.011719 C 28.664062 8.109375 28.664062 8.109375 29.375 7.292969 C 30.332031 6.332031 31.949219 6.269531 33.015625 7.136719 Z M 33.015625 7.136719 "/>
<path style=" stroke:none;fill-rule:nonzero;fill:rgb(27.450982%,28.627452%,29.411766%);fill-opacity:1;" d="M 13.773438 10.773438 C 13.914062 10.769531 14.050781 10.769531 14.195312 10.765625 C 15.03125 10.757812 15.683594 10.8125 16.375 11.316406 C 16.605469 11.546875 16.605469 11.546875 16.742188 11.765625 C 16.789062 11.839844 16.835938 11.910156 16.886719 11.984375 C 17.273438 12.703125 17.265625 13.71875 17.042969 14.492188 C 16.695312 15.167969 16.082031 15.609375 15.375 15.84375 C 14.867188 15.878906 14.359375 15.878906 13.851562 15.882812 C 13.710938 15.886719 13.574219 15.890625 13.429688 15.894531 C 12.503906 15.902344 11.75 15.820312 11.054688 15.15625 C 10.433594 14.441406 10.457031 13.792969 10.464844 12.882812 C 10.519531 12.207031 10.691406 11.835938 11.214844 11.382812 C 12.039062 10.757812 12.769531 10.785156 13.773438 10.773438 Z M 13.773438 10.773438 "/>
<path style=" stroke:none;fill-rule:nonzero;fill:rgb(34.509805%,35.686275%,36.862746%);fill-opacity:1;" d="M 22.492188 11.097656 C 23.121094 11.652344 23.375 12.039062 23.476562 12.882812 C 23.535156 13.792969 23.296875 14.363281 22.75 15.089844 C 22.023438 15.75 21.40625 15.777344 20.449219 15.769531 C 19.609375 15.675781 19.117188 15.265625 18.597656 14.617188 C 18.179688 13.851562 18.238281 12.871094 18.449219 12.03125 C 18.753906 11.398438 19.394531 10.996094 20 10.6875 C 20.917969 10.441406 21.722656 10.515625 22.492188 11.097656 Z M 22.492188 11.097656 "/>
<path style=" stroke:none;fill-rule:nonzero;fill:rgb(15.294118%,15.686275%,15.686275%);fill-opacity:1;" d="M 60.101562 16.292969 C 60.703125 16.6875 60.964844 17.164062 61.125 17.855469 C 61.199219 18.710938 61.128906 19.480469 60.648438 20.214844 C 60.058594 20.824219 59.476562 21.015625 58.648438 21.03125 C 57.785156 21.019531 57.121094 20.742188 56.5 20.121094 C 56.03125 19.441406 55.878906 18.796875 56 17.980469 C 56.261719 17.191406 56.660156 16.539062 57.375 16.097656 C 58.398438 15.652344 59.152344 15.773438 60.101562 16.292969 Z M 60.101562 16.292969 "/>
<path style=" stroke:none;fill-rule:nonzero;fill:rgb(34.117648%,35.294119%,36.470589%);fill-opacity:1;" d="M 7.375 10.8125 C 8.046875 11.097656 8.589844 11.511719 8.875 12.199219 C 9.207031 13.097656 9.109375 13.835938 8.75 14.710938 C 8.378906 15.316406 7.921875 15.644531 7.25 15.84375 C 6.429688 15.964844 5.714844 15.96875 4.992188 15.523438 C 4.394531 15.058594 4.113281 14.550781 3.875 13.832031 C 3.8125 12.902344 3.992188 12.3125 4.539062 11.539062 C 5.347656 10.707031 6.273438 10.660156 7.375 10.8125 Z M 7.375 10.8125 "/>
<path style=" stroke:none;fill-rule:nonzero;fill:rgb(22.745098%,23.529412%,24.313726%);fill-opacity:1;" d="M 11.46875 5.546875 C 12.054688 5.910156 12.570312 6.355469 12.75 7.042969 C 12.867188 7.976562 12.894531 8.835938 12.3125 9.613281 C 11.699219 10.25 11.09375 10.457031 10.234375 10.492188 C 9.382812 10.484375 8.867188 10.273438 8.25 9.683594 C 7.667969 9.019531 7.582031 8.410156 7.625 7.542969 C 7.8125 6.773438 8.164062 6.15625 8.796875 5.675781 C 9.597656 5.210938 10.621094 5.203125 11.46875 5.546875 Z M 11.46875 5.546875 "/>
<path style=" stroke:none;fill-rule:nonzero;fill:rgb(14.901961%,15.294118%,15.686275%);fill-opacity:1;" d="M 59.625 0 C 60.261719 0.28125 60.714844 0.742188 61 1.382812 C 61.238281 2.175781 61.265625 3.070312 60.914062 3.828125 C 60.582031 4.40625 60.113281 4.777344 59.5 5.03125 C 59.117188 5.0625 59.117188 5.0625 58.695312 5.0625 C 58.554688 5.0625 58.417969 5.0625 58.273438 5.0625 C 57.585938 5.003906 57.125 4.75 56.625 4.277344 C 56.136719 3.554688 55.894531 2.886719 56 2.011719 C 56.242188 1.097656 56.707031 0.609375 57.5 0.125 C 58.113281 -0.183594 58.957031 -0.0742188 59.625 0 Z M 59.625 0 "/>
<path style=" stroke:none;fill-rule:nonzero;fill:rgb(14.901961%,15.294118%,15.686275%);fill-opacity:1;" d="M 15.21875 0.171875 C 15.777344 0.589844 16.109375 0.976562 16.375 1.632812 C 16.46875 2.375 16.527344 3.222656 16.179688 3.90625 C 15.738281 4.441406 15.28125 4.808594 14.625 5.03125 C 13.785156 5.101562 13.109375 5.082031 12.375 4.652344 C 11.636719 3.996094 11.28125 3.523438 11.21875 2.539062 C 11.230469 1.730469 11.578125 1.085938 12.125 0.503906 C 12.984375 -0.101562 14.253906 -0.308594 15.21875 0.171875 Z M 15.21875 0.171875 "/>
<path style=" stroke:none;fill-rule:nonzero;fill:rgb(22.352941%,23.137255%,23.921569%);fill-opacity:1;" d="M 18.585938 5.425781 C 19.15625 5.78125 19.585938 6.171875 19.875 6.789062 C 20.046875 7.542969 20.109375 8.367188 19.734375 9.0625 C 19.3125 9.6875 18.859375 10.113281 18.125 10.3125 C 17.320312 10.417969 16.554688 10.410156 15.84375 9.980469 C 15.3125 9.5625 14.953125 9.125 14.792969 8.457031 C 14.6875 7.574219 14.832031 6.941406 15.25 6.160156 C 15.332031 6.160156 15.414062 6.160156 15.5 6.160156 C 15.542969 6.039062 15.582031 5.914062 15.625 5.785156 C 16.507812 5.183594 17.578125 4.996094 18.585938 5.425781 Z M 18.585938 5.425781 "/>
<path style=" stroke:none;fill-rule:nonzero;fill:rgb(14.509805%,14.901961%,15.294118%);fill-opacity:1;" d="M 32.75 0.320312 C 33.449219 0.871094 33.742188 1.390625 33.859375 2.269531 C 33.914062 3.132812 33.652344 3.722656 33.125 4.402344 C 32.269531 5.050781 31.546875 5.125 30.5 5.03125 C 29.636719 4.773438 29.238281 4.253906 28.75 3.519531 C 28.648438 2.636719 28.542969 1.65625 29.085938 0.902344 C 30.011719 -0.0898438 31.5625 -0.421875 32.75 0.320312 Z M 32.75 0.320312 "/>
<path style=" stroke:none;fill-rule:nonzero;fill:rgb(28.627452%,29.803923%,30.588236%);fill-opacity:1;" d="M 32.785156 16.324219 C 33.25 16.644531 33.539062 17.089844 33.75 17.605469 C 33.859375 18.535156 33.890625 19.40625 33.3125 20.175781 C 32.675781 20.839844 32.082031 20.996094 31.203125 21.03125 C 30.371094 21.019531 29.726562 20.691406 29.125 20.121094 C 28.570312 19.363281 28.648438 18.5 28.75 17.605469 C 29 16.878906 29.453125 16.453125 30.125 16.097656 C 31.035156 15.667969 31.929688 15.851562 32.785156 16.324219 Z M 32.785156 16.324219 "/>
<path style=" stroke:none;fill-rule:nonzero;fill:rgb(45.882353%,47.843137%,49.411765%);fill-opacity:1;" d="M 26.125 16.472656 C 26.667969 17.042969 26.945312 17.683594 27.046875 18.460938 C 26.945312 19.332031 26.5625 20.078125 25.875 20.621094 C 25.171875 21.023438 24.539062 21.09375 23.75 21 C 22.972656 20.757812 22.519531 20.371094 22.046875 19.714844 C 21.695312 19.007812 21.742188 18.066406 21.957031 17.316406 C 22.285156 16.675781 22.84375 16.257812 23.5 15.996094 C 24.441406 15.71875 25.324219 15.910156 26.125 16.472656 Z M 26.125 16.472656 "/>
<path style=" stroke:none;fill-rule:nonzero;fill:rgb(45.882353%,47.843137%,49.411765%);fill-opacity:1;" d="M 4.25 16.472656 C 4.777344 16.964844 4.972656 17.394531 5.03125 18.105469 C 5.050781 18.980469 5.054688 19.558594 4.5 20.246094 C 3.769531 20.894531 3.15625 21.039062 2.191406 21.027344 C 1.5625 20.972656 1.132812 20.734375 0.65625 20.332031 C 0.0742188 19.632812 -0.0625 19.09375 -0.0351562 18.195312 C 0.046875 17.394531 0.382812 16.867188 1 16.347656 C 2.125 15.699219 3.167969 15.734375 4.25 16.472656 Z M 4.25 16.472656 "/>
</g>
</svg>
