<?xml version="1.0" encoding="UTF-8"?>
<svg xmlns="http://www.w3.org/2000/svg" xmlns:xlink="http://www.w3.org/1999/xlink" width="224px" height="40px" viewBox="0 0 224 40" version="1.1">
<g id="surface1">
<path style=" stroke:none;fill-rule:nonzero;fill:rgb(11.372549%,11.764706%,12.156863%);fill-opacity:1;" d="M 74.355469 14.488281 C 74.632812 14.484375 74.910156 14.484375 75.195312 14.480469 C 76.113281 14.476562 77.027344 14.480469 77.941406 14.484375 C 78.578125 14.484375 79.21875 14.480469 79.855469 14.480469 C 81.191406 14.480469 82.523438 14.480469 83.859375 14.484375 C 85.398438 14.492188 86.941406 14.488281 88.480469 14.484375 C 89.804688 14.480469 91.132812 14.480469 92.457031 14.480469 C 93.25 14.484375 94.039062 14.484375 94.828125 14.480469 C 95.710938 14.476562 96.59375 14.480469 97.472656 14.488281 C 97.734375 14.484375 97.992188 14.484375 98.261719 14.480469 C 100.019531 14.5 101.148438 14.753906 102.417969 16.046875 C 102.585938 16.285156 102.585938 16.285156 102.757812 16.527344 C 102.929688 16.765625 102.929688 16.765625 103.105469 17.007812 C 103.710938 18.046875 103.746094 19.179688 103.625 20.359375 C 103.140625 21.839844 102.414062 23.039062 101.066406 23.867188 C 100.164062 24.238281 99.386719 24.292969 98.425781 24.289062 C 98.25 24.289062 98.070312 24.289062 97.882812 24.292969 C 97.296875 24.296875 96.707031 24.296875 96.117188 24.296875 C 95.707031 24.300781 95.292969 24.304688 94.882812 24.308594 C 93.800781 24.316406 92.714844 24.320312 91.632812 24.324219 C 89.902344 24.328125 88.171875 24.339844 86.441406 24.351562 C 85.835938 24.355469 85.234375 24.359375 84.632812 24.359375 C 84.261719 24.359375 83.886719 24.363281 83.515625 24.367188 C 83.265625 24.367188 83.265625 24.367188 83.015625 24.363281 C 81.734375 24.378906 80.363281 24.507812 79.242188 25.179688 C 78.457031 26.488281 78.429688 28.058594 78.429688 29.542969 C 78.425781 29.917969 78.421875 30.296875 78.414062 30.671875 C 78.410156 31.257812 78.40625 31.84375 78.40625 32.425781 C 78.386719 37.152344 78.386719 37.152344 76.820312 38.839844 C 76.664062 38.945312 76.503906 39.050781 76.34375 39.160156 C 76.105469 39.328125 76.105469 39.328125 75.863281 39.5 C 74.5 40.246094 72.726562 40.234375 71.246094 39.863281 C 69.859375 39.273438 69.019531 38.265625 68.445312 36.886719 C 68.234375 35.445312 68.242188 34.015625 68.253906 32.558594 C 68.253906 32.136719 68.25 31.71875 68.25 31.296875 C 68.246094 30.414062 68.25 29.535156 68.257812 28.65625 C 68.265625 27.53125 68.261719 26.410156 68.253906 25.285156 C 68.246094 24.414062 68.25 23.546875 68.253906 22.675781 C 68.253906 22.261719 68.253906 21.847656 68.25 21.433594 C 68.222656 17.566406 68.222656 17.566406 69.410156 15.980469 C 71.011719 14.574219 72.28125 14.472656 74.355469 14.488281 Z M 74.355469 14.488281 "/>
<path style=" stroke:none;fill-rule:nonzero;fill:rgb(11.372549%,11.764706%,12.156863%);fill-opacity:1;" d="M 73.195312 -0.0390625 C 73.554688 -0.0429688 73.554688 -0.0429688 73.921875 -0.046875 C 74.183594 -0.0507812 74.445312 -0.0507812 74.71875 -0.0546875 C 75.132812 -0.0585938 75.132812 -0.0585938 75.554688 -0.0625 C 78.109375 -0.0859375 80.660156 -0.0976562 83.214844 -0.105469 C 85.101562 -0.113281 86.984375 -0.125 88.871094 -0.144531 C 90.199219 -0.160156 91.523438 -0.164062 92.851562 -0.167969 C 93.644531 -0.167969 94.4375 -0.175781 95.226562 -0.183594 C 96.113281 -0.195312 96.996094 -0.195312 97.882812 -0.195312 C 98.140625 -0.199219 98.402344 -0.207031 98.667969 -0.210938 C 100.535156 -0.191406 101.59375 0.347656 102.90625 1.675781 C 103.839844 2.933594 104.027344 4.195312 103.863281 5.75 C 103.367188 7.210938 102.742188 8.363281 101.371094 9.128906 C 100.097656 9.742188 98.882812 9.714844 97.496094 9.703125 C 97.222656 9.707031 96.949219 9.707031 96.667969 9.710938 C 95.769531 9.714844 94.875 9.710938 93.976562 9.707031 C 93.351562 9.707031 92.726562 9.710938 92.097656 9.710938 C 90.789062 9.710938 89.480469 9.710938 88.167969 9.707031 C 86.660156 9.699219 85.148438 9.703125 83.636719 9.707031 C 82.179688 9.710938 80.722656 9.710938 79.261719 9.710938 C 78.644531 9.707031 78.027344 9.710938 77.40625 9.710938 C 76.542969 9.714844 75.679688 9.710938 74.8125 9.703125 C 74.558594 9.707031 74.304688 9.707031 74.042969 9.710938 C 72.351562 9.691406 71.003906 9.429688 69.726562 8.261719 C 68.929688 7.382812 68.488281 6.117188 68.402344 4.941406 C 68.515625 3.488281 68.960938 2.0625 70.050781 1.058594 C 71.078125 0.300781 71.90625 -0.0273438 73.195312 -0.0390625 Z M 73.195312 -0.0390625 "/>
<path style=" stroke:none;fill-rule:nonzero;fill:rgb(3.529412%,3.529412%,3.529412%);fill-opacity:1;" d="M 165.199219 16.011719 C 165.417969 16.011719 165.632812 16.007812 165.855469 16.007812 C 166.09375 16.007812 166.332031 16.007812 166.574219 16.003906 C 166.949219 16.003906 166.949219 16.003906 167.332031 16 C 168.160156 15.996094 168.992188 15.992188 169.820312 15.992188 C 170.105469 15.988281 170.386719 15.988281 170.679688 15.988281 C 172.175781 15.984375 173.671875 15.980469 175.171875 15.976562 C 176.71875 15.972656 178.265625 15.964844 179.8125 15.957031 C 181.003906 15.949219 182.191406 15.949219 183.382812 15.949219 C 183.953125 15.945312 184.523438 15.945312 185.09375 15.9375 C 185.890625 15.933594 186.691406 15.933594 187.488281 15.933594 C 187.726562 15.933594 187.960938 15.929688 188.203125 15.925781 C 189.839844 15.9375 190.640625 16.234375 191.839844 17.371094 C 192.804688 18.566406 193.25 19.484375 193.203125 21.050781 C 193.011719 22.335938 192.402344 23.242188 191.496094 24.148438 C 189.875 25.261719 188.640625 25.496094 186.710938 25.488281 C 186.367188 25.492188 186.367188 25.492188 186.015625 25.496094 C 185.257812 25.5 184.5 25.5 183.746094 25.5 C 183.21875 25.503906 182.6875 25.503906 182.160156 25.507812 C 181.054688 25.511719 179.945312 25.511719 178.839844 25.507812 C 177.425781 25.507812 176.011719 25.515625 174.597656 25.523438 C 173.507812 25.53125 172.417969 25.53125 171.324219 25.53125 C 170.804688 25.53125 170.28125 25.535156 169.761719 25.539062 C 169.03125 25.542969 168.300781 25.539062 167.570312 25.535156 C 167.359375 25.539062 167.144531 25.542969 166.925781 25.546875 C 165.148438 25.523438 163.566406 24.984375 162.261719 23.742188 C 161.25 22.585938 160.964844 21.398438 161.058594 19.878906 C 161.328125 18.1875 162.355469 17.269531 163.691406 16.289062 C 164.25 16.007812 164.578125 16.015625 165.199219 16.011719 Z M 165.199219 16.011719 "/>
<path style=" stroke:none;fill-rule:nonzero;fill:rgb(1.568628%,1.568628%,1.568628%);fill-opacity:1;" d="M 165.714844 0.414062 C 166.03125 0.410156 166.03125 0.410156 166.355469 0.40625 C 166.589844 0.40625 166.820312 0.40625 167.054688 0.40625 C 167.300781 0.402344 167.546875 0.402344 167.796875 0.398438 C 168.605469 0.394531 169.414062 0.390625 170.226562 0.390625 C 170.789062 0.386719 171.351562 0.386719 171.914062 0.382812 C 173.09375 0.378906 174.273438 0.378906 175.453125 0.378906 C 176.964844 0.375 178.476562 0.367188 179.988281 0.355469 C 181.148438 0.347656 182.3125 0.347656 183.476562 0.347656 C 184.03125 0.347656 184.589844 0.34375 185.144531 0.335938 C 185.925781 0.332031 186.707031 0.332031 187.484375 0.335938 C 187.714844 0.332031 187.945312 0.328125 188.179688 0.324219 C 189.722656 0.339844 190.730469 0.695312 191.929688 1.675781 C 192.910156 2.707031 193.320312 3.570312 193.457031 4.984375 C 193.417969 6.265625 192.9375 7.332031 192.070312 8.273438 C 190.199219 9.921875 187.925781 9.859375 185.566406 9.839844 C 185.347656 9.839844 185.125 9.839844 184.898438 9.839844 C 184.171875 9.835938 183.445312 9.832031 182.71875 9.824219 C 182.46875 9.824219 182.21875 9.820312 181.960938 9.820312 C 180.644531 9.8125 179.328125 9.800781 178.007812 9.789062 C 176.648438 9.777344 175.292969 9.769531 173.933594 9.765625 C 172.886719 9.761719 171.835938 9.75 170.789062 9.742188 C 170.289062 9.738281 169.789062 9.734375 169.289062 9.734375 C 168.585938 9.730469 167.886719 9.722656 167.183594 9.714844 C 166.980469 9.714844 166.773438 9.71875 166.5625 9.71875 C 165.042969 9.6875 163.75 9.339844 162.609375 8.285156 C 161.601562 7.140625 161.179688 6.109375 161.222656 4.578125 C 161.410156 3.316406 162.015625 2.296875 162.972656 1.46875 C 163.917969 0.796875 164.550781 0.421875 165.714844 0.414062 Z M 165.714844 0.414062 "/>
<path style=" stroke:none;fill-rule:nonzero;fill:rgb(1.568628%,1.568628%,1.568628%);fill-opacity:1;" d="M 165.210938 30.863281 C 165.421875 30.859375 165.632812 30.859375 165.851562 30.859375 C 166.199219 30.855469 166.199219 30.855469 166.554688 30.855469 C 166.921875 30.851562 166.921875 30.851562 167.296875 30.851562 C 168.109375 30.847656 168.917969 30.84375 169.730469 30.839844 C 170.148438 30.839844 170.148438 30.839844 170.570312 30.839844 C 172.039062 30.832031 173.503906 30.828125 174.972656 30.828125 C 176.484375 30.824219 178 30.816406 179.515625 30.808594 C 180.679688 30.800781 181.84375 30.800781 183.011719 30.796875 C 183.570312 30.796875 184.128906 30.792969 184.683594 30.789062 C 185.46875 30.785156 186.25 30.785156 187.03125 30.785156 C 187.375 30.78125 187.375 30.78125 187.726562 30.777344 C 189.359375 30.789062 190.382812 31.113281 191.621094 32.222656 C 192.5625 33.421875 193.011719 34.347656 192.964844 35.898438 C 192.777344 37.15625 192.171875 38.179688 191.230469 39.011719 C 189.78125 40.019531 188.625 40.070312 186.910156 40.070312 C 186.667969 40.070312 186.429688 40.074219 186.183594 40.074219 C 185.390625 40.078125 184.597656 40.078125 183.804688 40.082031 C 183.253906 40.082031 182.703125 40.082031 182.148438 40.085938 C 180.992188 40.089844 179.835938 40.089844 178.679688 40.089844 C 177.199219 40.089844 175.71875 40.09375 174.242188 40.101562 C 173.101562 40.109375 171.960938 40.109375 170.820312 40.109375 C 170.277344 40.109375 169.730469 40.113281 169.183594 40.117188 C 168.421875 40.121094 167.65625 40.121094 166.894531 40.117188 C 166.558594 40.121094 166.558594 40.121094 166.214844 40.125 C 164.636719 40.109375 163.316406 39.804688 162.128906 38.703125 C 161.121094 37.5625 160.699219 36.527344 160.746094 34.996094 C 160.976562 33.421875 161.851562 32.386719 163.050781 31.40625 C 163.757812 30.933594 164.382812 30.867188 165.210938 30.863281 Z M 165.210938 30.863281 "/>
<path style=" stroke:none;fill-rule:nonzero;fill:rgb(2.745098%,2.745098%,2.745098%);fill-opacity:1;" d="M 221.398438 24.328125 C 222.488281 24.929688 223.503906 25.832031 223.914062 27.039062 C 224.015625 27.640625 224.050781 28.21875 224.058594 28.832031 C 224.066406 29.050781 224.070312 29.269531 224.078125 29.496094 C 223.902344 31.027344 222.984375 32.019531 221.925781 33.058594 C 221.730469 33.257812 221.730469 33.257812 221.527344 33.460938 C 221.246094 33.738281 220.96875 34.015625 220.6875 34.292969 C 220.265625 34.710938 219.84375 35.132812 219.425781 35.554688 C 214.921875 40.050781 214.921875 40.050781 212.308594 40.070312 C 212.03125 40.074219 211.753906 40.074219 211.46875 40.078125 C 211.171875 40.078125 210.875 40.078125 210.570312 40.082031 C 210.109375 40.082031 210.109375 40.082031 209.640625 40.085938 C 208.992188 40.089844 208.339844 40.089844 207.691406 40.089844 C 206.863281 40.089844 206.035156 40.09375 205.207031 40.101562 C 204.414062 40.109375 203.617188 40.109375 202.824219 40.109375 C 202.527344 40.113281 202.234375 40.117188 201.929688 40.121094 C 199.855469 40.109375 198.527344 39.859375 196.988281 38.382812 C 196.140625 37.089844 195.890625 36.027344 196.105469 34.492188 C 196.417969 33.175781 197.113281 32.230469 198.152344 31.378906 C 199.328125 30.710938 200.472656 30.917969 201.769531 31.007812 C 207.65625 31.53125 207.65625 31.53125 212.867188 29.335938 C 214.167969 28.140625 215.265625 26.75 216.261719 25.296875 C 217.617188 23.773438 219.59375 23.527344 221.398438 24.328125 Z M 221.398438 24.328125 "/>
<path style=" stroke:none;fill-rule:nonzero;fill:rgb(2.745098%,2.745098%,2.745098%);fill-opacity:1;" d="M 201.132812 0.4375 C 201.53125 0.433594 201.53125 0.433594 201.941406 0.425781 C 202.230469 0.425781 202.519531 0.421875 202.816406 0.421875 C 203.113281 0.421875 203.410156 0.417969 203.714844 0.417969 C 204.347656 0.414062 204.976562 0.410156 205.605469 0.410156 C 206.25 0.40625 206.894531 0.402344 207.535156 0.394531 C 208.464844 0.382812 209.394531 0.378906 210.324219 0.378906 C 210.609375 0.371094 210.898438 0.367188 211.191406 0.363281 C 213.699219 0.371094 215.027344 0.976562 216.792969 2.726562 C 216.953125 2.890625 217.117188 3.054688 217.28125 3.226562 C 217.539062 3.484375 217.539062 3.484375 217.800781 3.746094 C 218.160156 4.109375 218.519531 4.46875 218.875 4.832031 C 219.425781 5.390625 219.976562 5.941406 220.527344 6.496094 C 220.875 6.847656 221.226562 7.199219 221.574219 7.550781 C 221.738281 7.71875 221.902344 7.882812 222.074219 8.050781 C 222.226562 8.207031 222.375 8.363281 222.53125 8.523438 C 222.734375 8.726562 222.734375 8.726562 222.9375 8.933594 C 223.949219 10.132812 223.863281 11.335938 223.832031 12.851562 C 223.699219 14.3125 222.984375 14.976562 221.921875 15.882812 C 220.867188 16.621094 220.011719 16.851562 218.734375 16.765625 C 217.113281 16.449219 216.152344 15.707031 215.160156 14.414062 C 212.695312 11.175781 212.695312 11.175781 209.105469 9.53125 C 206.660156 9.246094 204.152344 9.339844 201.703125 9.574219 C 200.300781 9.679688 199.320312 9.425781 198.152344 8.621094 C 197.046875 7.597656 196.535156 6.566406 196.390625 5.074219 C 196.429688 3.742188 196.929688 2.6875 197.847656 1.722656 C 198.921875 0.769531 199.679688 0.453125 201.132812 0.4375 Z M 201.132812 0.4375 "/>
<path style=" stroke:none;fill-rule:nonzero;fill:rgb(5.098039%,5.098039%,5.098039%);fill-opacity:1;" d="M 155.421875 0.761719 C 156.773438 1.722656 157.625 2.667969 157.949219 4.3125 C 158.015625 6.085938 157.546875 7.238281 156.382812 8.5625 C 155.945312 9.027344 155.5 9.480469 155.050781 9.933594 C 154.804688 10.183594 154.804688 10.183594 154.554688 10.441406 C 154.207031 10.789062 153.859375 11.140625 153.511719 11.488281 C 152.984375 12.019531 152.460938 12.554688 151.9375 13.089844 C 151.601562 13.429688 151.261719 13.773438 150.921875 14.113281 C 150.769531 14.273438 150.613281 14.429688 150.453125 14.59375 C 149.3125 15.726562 148.234375 16.421875 146.589844 16.585938 C 144.804688 16.367188 143.296875 15.542969 142.152344 14.132812 C 141.507812 13.035156 141.488281 11.773438 141.675781 10.539062 C 142.121094 9.519531 142.753906 8.640625 143.589844 7.902344 C 143.746094 7.902344 143.90625 7.902344 144.070312 7.902344 C 144.121094 7.773438 144.175781 7.644531 144.230469 7.507812 C 144.644531 6.769531 145.207031 6.214844 145.800781 5.621094 C 145.921875 5.496094 146.046875 5.371094 146.171875 5.242188 C 146.433594 4.980469 146.695312 4.71875 146.957031 4.457031 C 147.355469 4.058594 147.75 3.660156 148.144531 3.257812 C 148.402344 3 148.65625 2.746094 148.910156 2.492188 C 149.085938 2.3125 149.085938 2.3125 149.265625 2.132812 C 151.027344 0.390625 153.078125 -0.046875 155.421875 0.761719 Z M 155.421875 0.761719 "/>
<path style=" stroke:none;fill-rule:nonzero;fill:rgb(28.235295%,29.411766%,30.19608%);fill-opacity:1;" d="M 134.523438 24.132812 C 134.882812 24.371094 134.882812 24.371094 135.453125 24.910156 C 135.625 25.042969 135.796875 25.175781 135.976562 25.3125 C 136.8125 26.382812 137.144531 27.542969 137.097656 28.890625 C 136.609375 30.785156 135.851562 31.839844 134.476562 33.191406 C 134.308594 33.359375 134.144531 33.523438 133.972656 33.695312 C 133.625 34.042969 133.273438 34.390625 132.921875 34.738281 C 132.386719 35.269531 131.855469 35.800781 131.328125 36.335938 C 130.984375 36.675781 130.644531 37.015625 130.304688 37.355469 C 130.144531 37.511719 129.988281 37.671875 129.824219 37.835938 C 128.628906 39.007812 127.535156 39.863281 125.789062 39.867188 C 124.203125 39.816406 123.097656 39.371094 121.976562 38.25 C 121.21875 37.042969 120.628906 35.933594 120.855469 34.492188 C 121.542969 32.757812 122.484375 31.492188 123.808594 30.203125 C 123.976562 30.035156 124.140625 29.871094 124.3125 29.699219 C 124.660156 29.355469 125.011719 29.011719 125.359375 28.667969 C 125.898438 28.140625 126.429688 27.613281 126.960938 27.082031 C 127.300781 26.742188 127.640625 26.40625 127.984375 26.070312 C 128.140625 25.914062 128.300781 25.753906 128.464844 25.59375 C 128.613281 25.445312 128.761719 25.300781 128.917969 25.152344 C 129.046875 25.023438 129.175781 24.894531 129.3125 24.761719 C 130.683594 23.617188 132.875 23.542969 134.523438 24.132812 Z M 134.523438 24.132812 "/>
<path style=" stroke:none;fill-rule:nonzero;fill:rgb(28.235295%,29.411766%,30.19608%);fill-opacity:1;" d="M 149.332031 24.910156 C 149.953125 25.40625 150.503906 25.957031 151.058594 26.523438 C 151.210938 26.679688 151.367188 26.835938 151.523438 26.992188 C 151.847656 27.320312 152.171875 27.644531 152.492188 27.972656 C 152.980469 28.472656 153.476562 28.96875 153.96875 29.460938 C 154.285156 29.78125 154.601562 30.097656 154.917969 30.417969 C 155.136719 30.636719 155.136719 30.636719 155.359375 30.863281 C 156.640625 32.171875 157.789062 33.527344 158.039062 35.402344 C 157.867188 36.867188 157.070312 38.246094 156.035156 39.28125 C 154.714844 40.046875 153.476562 40.21875 151.964844 40 C 150.925781 39.640625 150.054688 39.164062 149.332031 38.324219 C 149.332031 38.164062 149.332031 38.007812 149.332031 37.84375 C 149.175781 37.84375 149.015625 37.84375 148.855469 37.84375 C 148.855469 37.6875 148.855469 37.527344 148.855469 37.367188 C 148.722656 37.3125 148.589844 37.257812 148.449219 37.199219 C 147.738281 36.796875 147.246094 36.296875 146.699219 35.6875 C 146.699219 35.53125 146.699219 35.371094 146.699219 35.210938 C 146.542969 35.210938 146.386719 35.210938 146.222656 35.210938 C 145.570312 34.609375 145 33.980469 144.441406 33.292969 C 143.851562 32.550781 143.851562 32.550781 143.082031 31.992188 C 142.179688 31.1875 141.777344 30.429688 141.609375 29.226562 C 141.542969 27.839844 141.859375 26.699219 142.808594 25.648438 C 144.859375 23.722656 146.964844 23.464844 149.332031 24.910156 Z M 149.332031 24.910156 "/>
<path style=" stroke:none;fill-rule:nonzero;fill:rgb(3.921569%,3.921569%,3.921569%);fill-opacity:1;" d="M 128.648438 1.210938 C 128.992188 1.675781 128.992188 1.675781 128.992188 2.15625 C 129.121094 2.207031 129.246094 2.257812 129.378906 2.308594 C 130.160156 2.753906 130.753906 3.363281 131.386719 3.992188 C 131.523438 4.128906 131.65625 4.261719 131.796875 4.398438 C 132.082031 4.683594 132.367188 4.96875 132.652344 5.253906 C 133.085938 5.6875 133.527344 6.117188 133.964844 6.546875 C 134.242188 6.824219 134.519531 7.097656 134.796875 7.375 C 134.925781 7.503906 135.058594 7.632812 135.191406 7.761719 C 136.292969 8.875 136.71875 9.929688 136.722656 11.480469 C 136.6875 12.96875 136.339844 13.964844 135.273438 15.03125 C 133.933594 15.957031 132.863281 16.480469 131.234375 16.195312 C 129.234375 15.675781 127.820312 14.003906 126.433594 12.574219 C 126.136719 12.273438 126.136719 12.273438 125.832031 11.964844 C 125.453125 11.578125 125.074219 11.191406 124.695312 10.800781 C 124.308594 10.40625 123.917969 10.011719 123.523438 9.621094 C 123.042969 9.132812 122.578125 8.640625 122.125 8.128906 C 121.917969 7.894531 121.917969 7.894531 121.703125 7.65625 C 120.792969 6.5 120.734375 5.53125 120.765625 4.082031 C 120.925781 2.753906 121.484375 1.921875 122.488281 1.0625 C 124.488281 -0.328125 126.714844 -0.34375 128.648438 1.210938 Z M 128.648438 1.210938 "/>
<path style=" stroke:none;fill-rule:nonzero;fill:rgb(6.27451%,6.27451%,6.27451%);fill-opacity:1;" d="M 204.535156 13.445312 C 205.730469 14.382812 206.292969 15.285156 206.53125 16.765625 C 206.589844 17.914062 206.585938 19.0625 206.589844 20.210938 C 206.59375 20.519531 206.601562 20.832031 206.605469 21.15625 C 206.613281 23.394531 206.441406 24.90625 204.855469 26.585938 C 203.632812 27.585938 202.511719 27.867188 200.96875 27.742188 C 199.574219 27.507812 198.367188 26.953125 197.4375 25.867188 C 196.269531 24.074219 196.335938 22.195312 196.359375 20.121094 C 196.355469 19.804688 196.351562 19.488281 196.347656 19.164062 C 196.355469 17.1875 196.46875 15.445312 197.835938 13.925781 C 199.753906 12.082031 202.355469 11.957031 204.535156 13.445312 Z M 204.535156 13.445312 "/>
<path style=" stroke:none;fill-rule:nonzero;fill:rgb(14.901961%,14.901961%,15.294118%);fill-opacity:1;" d="M 115.640625 13.636719 C 117.101562 15.320312 117.195312 16.984375 117.238281 19.144531 C 117.25 19.625 117.269531 20.101562 117.289062 20.582031 C 117.347656 22.640625 117.242188 24.308594 116.113281 26.0625 C 114.960938 27.214844 113.996094 27.707031 112.378906 27.808594 C 110.683594 27.742188 109.34375 27.09375 108.171875 25.867188 C 107.082031 24.234375 107.066406 22.667969 107.089844 20.753906 C 107.09375 20.257812 107.089844 19.757812 107.082031 19.261719 C 107.078125 17.261719 107.195312 15.480469 108.566406 13.925781 C 110.5625 11.964844 113.464844 12.003906 115.640625 13.636719 Z M 115.640625 13.636719 "/>
<path style=" stroke:none;fill-rule:nonzero;fill:rgb(12.941177%,13.333334%,13.725491%);fill-opacity:1;" d="M 63.210938 13.59375 C 64.136719 14.464844 64.578125 15.472656 64.714844 16.734375 C 64.722656 17.078125 64.726562 17.421875 64.726562 17.769531 C 64.730469 18.042969 64.730469 18.042969 64.734375 18.328125 C 64.734375 18.71875 64.738281 19.105469 64.734375 19.496094 C 64.734375 20.085938 64.746094 20.675781 64.753906 21.269531 C 64.78125 24.679688 64.78125 24.679688 63.761719 26.011719 C 62.574219 27.171875 61.378906 27.742188 59.714844 27.832031 C 58.203125 27.710938 56.835938 26.914062 55.761719 25.867188 C 54.984375 24.847656 54.929688 23.921875 54.929688 22.683594 C 54.929688 22.492188 54.925781 22.300781 54.925781 22.105469 C 54.921875 21.703125 54.921875 21.300781 54.921875 20.898438 C 54.921875 20.289062 54.914062 19.679688 54.902344 19.070312 C 54.875 15.445312 54.875 15.445312 56.238281 13.890625 C 58.070312 12.058594 61.167969 11.941406 63.210938 13.59375 Z M 63.210938 13.59375 "/>
<path style=" stroke:none;fill-rule:nonzero;fill:rgb(27.450982%,28.627452%,29.411766%);fill-opacity:1;" d="M 26.371094 20.523438 C 26.636719 20.515625 26.902344 20.511719 27.175781 20.503906 C 28.777344 20.492188 30.027344 20.59375 31.351562 21.558594 C 31.789062 21.992188 31.789062 21.992188 32.054688 22.410156 C 32.144531 22.546875 32.234375 22.6875 32.328125 22.832031 C 33.070312 24.199219 33.058594 26.128906 32.632812 27.601562 C 31.960938 28.894531 30.789062 29.730469 29.4375 30.179688 C 28.464844 30.25 27.492188 30.246094 26.519531 30.253906 C 26.253906 30.261719 25.988281 30.269531 25.714844 30.277344 C 23.9375 30.289062 22.492188 30.136719 21.167969 28.867188 C 19.976562 27.511719 20.019531 26.273438 20.039062 24.539062 C 20.140625 23.246094 20.46875 22.546875 21.472656 21.679688 C 23.046875 20.492188 24.445312 20.539062 26.371094 20.523438 Z M 26.371094 20.523438 "/>
<path style=" stroke:none;fill-rule:nonzero;fill:rgb(34.509805%,35.686275%,36.862746%);fill-opacity:1;" d="M 43.0625 21.136719 C 44.269531 22.195312 44.75 22.933594 44.945312 24.535156 C 45.058594 26.269531 44.605469 27.363281 43.554688 28.742188 C 42.160156 30 40.980469 30.050781 39.152344 30.039062 C 37.546875 29.855469 36.597656 29.074219 35.609375 27.84375 C 34.804688 26.378906 34.914062 24.519531 35.320312 22.917969 C 35.90625 21.714844 37.128906 20.945312 38.289062 20.359375 C 40.046875 19.890625 41.589844 20.035156 43.0625 21.136719 Z M 43.0625 21.136719 "/>
<path style=" stroke:none;fill-rule:nonzero;fill:rgb(15.294118%,15.686275%,15.686275%);fill-opacity:1;" d="M 115.0625 31.035156 C 116.21875 31.785156 116.722656 32.691406 117.027344 34.011719 C 117.167969 35.636719 117.03125 37.109375 116.113281 38.503906 C 114.984375 39.664062 113.867188 40.03125 112.285156 40.058594 C 110.632812 40.039062 109.359375 39.511719 108.171875 38.324219 C 107.273438 37.03125 106.980469 35.808594 107.214844 34.25 C 107.714844 32.746094 108.480469 31.503906 109.847656 30.660156 C 111.808594 29.8125 113.246094 30.042969 115.0625 31.035156 Z M 115.0625 31.035156 "/>
<path style=" stroke:none;fill-rule:nonzero;fill:rgb(34.117648%,35.294119%,36.470589%);fill-opacity:1;" d="M 14.121094 20.597656 C 15.402344 21.136719 16.449219 21.921875 16.992188 23.234375 C 17.625 24.949219 17.441406 26.351562 16.753906 28.023438 C 16.039062 29.175781 15.164062 29.796875 13.878906 30.179688 C 12.308594 30.414062 10.9375 30.417969 9.558594 29.566406 C 8.417969 28.679688 7.875 27.714844 7.417969 26.347656 C 7.300781 24.574219 7.640625 23.449219 8.691406 21.976562 C 10.238281 20.390625 12.011719 20.304688 14.121094 20.597656 Z M 14.121094 20.597656 "/>
<path style=" stroke:none;fill-rule:nonzero;fill:rgb(22.745098%,23.529412%,24.313726%);fill-opacity:1;" d="M 21.960938 10.566406 C 23.082031 11.253906 24.0625 12.101562 24.410156 13.414062 C 24.632812 15.195312 24.6875 16.832031 23.574219 18.3125 C 22.398438 19.527344 21.242188 19.921875 19.59375 19.984375 C 17.960938 19.972656 16.972656 19.566406 15.792969 18.441406 C 14.683594 17.179688 14.511719 16.019531 14.597656 14.371094 C 14.957031 12.902344 15.628906 11.730469 16.84375 10.808594 C 18.375 9.929688 20.335938 9.914062 21.960938 10.566406 Z M 21.960938 10.566406 "/>
<path style=" stroke:none;fill-rule:nonzero;fill:rgb(14.901961%,15.294118%,15.686275%);fill-opacity:1;" d="M 114.152344 0 C 115.375 0.535156 116.242188 1.414062 116.785156 2.632812 C 117.238281 4.144531 117.292969 5.847656 116.621094 7.289062 C 115.984375 8.394531 115.089844 9.101562 113.914062 9.582031 C 113.183594 9.644531 113.183594 9.644531 112.375 9.640625 C 112.109375 9.640625 111.839844 9.644531 111.566406 9.644531 C 110.25 9.535156 109.363281 9.050781 108.410156 8.144531 C 107.476562 6.773438 107.015625 5.5 107.214844 3.832031 C 107.675781 2.089844 108.570312 1.160156 110.085938 0.238281 C 111.261719 -0.347656 112.871094 -0.140625 114.152344 0 Z M 114.152344 0 "/>
<path style=" stroke:none;fill-rule:nonzero;fill:rgb(14.901961%,15.294118%,15.686275%);fill-opacity:1;" d="M 29.136719 0.324219 C 30.207031 1.125 30.84375 1.855469 31.351562 3.113281 C 31.53125 4.527344 31.640625 6.136719 30.976562 7.441406 C 30.132812 8.457031 29.257812 9.160156 28 9.582031 C 26.394531 9.714844 25.097656 9.675781 23.691406 8.863281 C 22.28125 7.609375 21.601562 6.710938 21.480469 4.835938 C 21.5 3.292969 22.167969 2.066406 23.214844 0.957031 C 24.863281 -0.195312 27.289062 -0.585938 29.136719 0.324219 Z M 29.136719 0.324219 "/>
<path style=" stroke:none;fill-rule:nonzero;fill:rgb(22.352941%,23.137255%,23.921569%);fill-opacity:1;" d="M 35.585938 10.332031 C 36.671875 11.015625 37.5 11.757812 38.050781 12.933594 C 38.378906 14.367188 38.503906 15.9375 37.78125 17.261719 C 36.972656 18.457031 36.109375 19.261719 34.699219 19.640625 C 33.160156 19.839844 31.695312 19.828125 30.335938 19.011719 C 29.320312 18.214844 28.625 17.382812 28.320312 16.105469 C 28.121094 14.425781 28.398438 13.222656 29.195312 11.738281 C 29.355469 11.738281 29.511719 11.738281 29.675781 11.738281 C 29.753906 11.5 29.832031 11.261719 29.914062 11.019531 C 31.609375 9.878906 33.65625 9.515625 35.585938 10.332031 Z M 35.585938 10.332031 "/>
<path style=" stroke:none;fill-rule:nonzero;fill:rgb(14.509805%,14.901961%,15.294118%);fill-opacity:1;" d="M 62.699219 0.613281 C 64.039062 1.65625 64.597656 2.648438 64.824219 4.328125 C 64.925781 5.96875 64.429688 7.09375 63.417969 8.382812 C 61.78125 9.621094 60.402344 9.765625 58.394531 9.582031 C 56.742188 9.089844 55.976562 8.105469 55.042969 6.707031 C 54.847656 5.023438 54.644531 3.152344 55.6875 1.722656 C 57.457031 -0.171875 60.425781 -0.804688 62.699219 0.613281 Z M 62.699219 0.613281 "/>
<path style=" stroke:none;fill-rule:nonzero;fill:rgb(28.627452%,29.803923%,30.588236%);fill-opacity:1;" d="M 62.765625 31.097656 C 63.65625 31.703125 64.214844 32.550781 64.617188 33.53125 C 64.820312 35.300781 64.886719 36.964844 63.777344 38.429688 C 62.558594 39.695312 61.421875 39.992188 59.738281 40.058594 C 58.148438 40.039062 56.910156 39.410156 55.761719 38.324219 C 54.695312 36.882812 54.851562 35.234375 55.042969 33.53125 C 55.523438 32.152344 56.390625 31.339844 57.675781 30.660156 C 59.417969 29.84375 61.128906 30.195312 62.765625 31.097656 Z M 62.765625 31.097656 "/>
<path style=" stroke:none;fill-rule:nonzero;fill:rgb(45.882353%,47.843137%,49.411765%);fill-opacity:1;" d="M 50.015625 31.378906 C 51.054688 32.460938 51.585938 33.679688 51.78125 35.164062 C 51.585938 36.820312 50.851562 38.242188 49.539062 39.28125 C 48.191406 40.046875 46.984375 40.179688 45.46875 40 C 43.984375 39.535156 43.117188 38.800781 42.210938 37.546875 C 41.539062 36.207031 41.628906 34.414062 42.039062 32.984375 C 42.664062 31.761719 43.738281 30.964844 44.988281 30.46875 C 46.796875 29.941406 48.480469 30.304688 50.015625 31.378906 Z M 50.015625 31.378906 "/>
<path style=" stroke:none;fill-rule:nonzero;fill:rgb(45.882353%,47.843137%,49.411765%);fill-opacity:1;" d="M 8.136719 31.378906 C 9.148438 32.3125 9.523438 33.136719 9.628906 34.488281 C 9.667969 36.152344 9.679688 37.25 8.617188 38.5625 C 7.21875 39.800781 6.042969 40.074219 4.195312 40.050781 C 2.988281 39.949219 2.167969 39.496094 1.257812 38.726562 C 0.144531 37.394531 -0.121094 36.367188 -0.0664062 34.65625 C 0.09375 33.132812 0.734375 32.125 1.914062 31.136719 C 4.070312 29.902344 6.0625 29.972656 8.136719 31.378906 Z M 8.136719 31.378906 "/>
</g>
</svg>
