<?xml version="1.0" encoding="UTF-8"?>
<svg xmlns="http://www.w3.org/2000/svg" xmlns:xlink="http://www.w3.org/1999/xlink" width="35px" height="28px" viewBox="0 0 34 28" version="1.1">
<g id="surface1">
<path style=" stroke:none;fill-rule:nonzero;fill:rgb(27.450982%,28.235295%,29.019609%);fill-opacity:1;" d="M 17.152344 19.042969 C 17.394531 19.035156 17.636719 19.027344 17.890625 19.023438 C 19.359375 19.011719 20.503906 19.109375 21.714844 20 C 22.121094 20.402344 22.121094 20.402344 22.359375 20.792969 C 22.445312 20.921875 22.527344 21.050781 22.613281 21.179688 C 23.289062 22.453125 23.28125 24.242188 22.890625 25.609375 C 22.277344 26.808594 21.199219 27.582031 19.960938 28 C 19.070312 28.0625 18.179688 28.0625 17.289062 28.070312 C 17.042969 28.074219 16.800781 28.082031 16.550781 28.089844 C 14.921875 28.101562 13.597656 27.957031 12.382812 26.78125 C 11.292969 25.523438 11.332031 24.375 11.347656 22.769531 C 11.441406 21.570312 11.742188 20.917969 12.660156 20.113281 C 14.105469 19.011719 15.386719 19.058594 17.152344 19.042969 Z M 17.152344 19.042969 "/>
<path style=" stroke:none;fill-rule:nonzero;fill:rgb(34.117648%,35.294119%,36.470589%);fill-opacity:1;" d="M 32.449219 19.609375 C 33.417969 20.414062 33.941406 21.105469 34.109375 22.378906 C 34.199219 25.078125 34.199219 25.078125 33.4375 26.167969 C 32.25 27.421875 31.347656 27.832031 29.640625 27.917969 C 28.160156 27.871094 27.148438 27.519531 26.101562 26.445312 C 24.9375 24.976562 25.039062 23.585938 25.226562 21.777344 C 25.550781 20.488281 26.515625 19.839844 27.570312 19.148438 C 29.207031 18.316406 31.007812 18.511719 32.449219 19.609375 Z M 32.449219 19.609375 "/>
<path style=" stroke:none;fill-rule:nonzero;fill:rgb(22.745098%,23.137255%,23.921569%);fill-opacity:1;" d="M 13.109375 9.800781 C 14.136719 10.441406 15.039062 11.230469 15.355469 12.445312 C 15.558594 14.097656 15.609375 15.613281 14.585938 16.988281 C 13.511719 18.117188 12.449219 18.480469 10.941406 18.542969 C 9.441406 18.53125 8.539062 18.152344 7.457031 17.109375 C 6.441406 15.9375 6.285156 14.863281 6.359375 13.332031 C 6.691406 11.96875 7.304688 10.882812 8.417969 10.027344 C 9.824219 9.210938 11.621094 9.195312 13.109375 9.800781 Z M 13.109375 9.800781 "/>
<path style=" stroke:none;fill-rule:nonzero;fill:rgb(14.901961%,15.294118%,15.686275%);fill-opacity:1;" d="M 19.6875 0.300781 C 20.667969 1.042969 21.253906 1.722656 21.714844 2.890625 C 21.882812 4.199219 21.984375 5.695312 21.375 6.902344 C 20.597656 7.847656 19.800781 8.5 18.644531 8.890625 C 17.175781 9.011719 15.984375 8.980469 14.695312 8.222656 C 13.402344 7.0625 12.78125 6.226562 12.667969 4.484375 C 12.6875 3.058594 13.300781 1.914062 14.257812 0.890625 C 15.769531 -0.183594 17.996094 -0.542969 19.6875 0.300781 Z M 19.6875 0.300781 "/>
<path style=" stroke:none;fill-rule:nonzero;fill:rgb(22.352941%,23.137255%,23.921569%);fill-opacity:1;" d="M 25.597656 9.585938 C 26.59375 10.21875 27.351562 10.910156 27.859375 12 C 28.160156 13.332031 28.269531 14.785156 27.609375 16.015625 C 26.871094 17.121094 26.078125 17.871094 24.785156 18.222656 C 23.375 18.40625 22.03125 18.394531 20.785156 17.640625 C 19.855469 16.898438 19.21875 16.125 18.9375 14.945312 C 18.757812 13.386719 19.011719 12.265625 19.742188 10.890625 C 19.886719 10.890625 20.03125 10.890625 20.179688 10.890625 C 20.253906 10.667969 20.324219 10.449219 20.398438 10.222656 C 21.953125 9.164062 23.828125 8.828125 25.597656 9.585938 Z M 25.597656 9.585938 "/>
<path style=" stroke:none;fill-rule:nonzero;fill:rgb(33.725491%,34.901962%,35.686275%);fill-opacity:1;" d="M 6.539062 19.371094 C 7.757812 20.160156 8.328125 20.933594 8.828125 22.304688 C 9.136719 23.820312 8.777344 25.277344 7.980469 26.582031 C 6.882812 27.695312 5.839844 28.058594 4.292969 28.140625 C 2.839844 28.089844 1.917969 27.683594 0.878906 26.667969 C -0.144531 25.457031 -0.132812 24.300781 -0.0859375 22.738281 C 0.0625 21.460938 0.488281 20.808594 1.425781 19.929688 C 2.949219 18.886719 4.796875 18.636719 6.539062 19.371094 Z M 6.539062 19.371094 "/>
</g>
</svg>
